<?xml version="1.0" encoding="UTF-8"?>
<svg width="26px" height="23px" viewBox="0 0 26 23" version="1.1" xmlns="http://www.w3.org/2000/svg" xmlns:xlink="http://www.w3.org/1999/xlink">
    <!-- Generator: Sketch 61.2 (89653) - https://sketch.com -->
    <title>Restart</title>
    <desc>Created with Sketch.</desc>
    <g id="Page-1" stroke="none" stroke-width="1" fill="none" fill-rule="evenodd">
        <g id="Game" transform="translate(-405.000000, -396.000000)" fill="#000000" fill-rule="nonzero">
            <g id="Restart" transform="translate(405.000000, 396.000000)">
                <path d="M1.81458333,9.425 L0.189583333,3.98125 C0.0541666667,3.49375 0.325,2.97916667 0.8125,2.84375 L0.8125,2.84375 C1.3,2.70833333 1.81458333,2.97916667 1.95,3.46666667 L2.89791667,6.63541667 C4.65833333,2.81666667 8.53125,0.189583333 13,0.189583333 C17.79375,0.189583333 21.8833333,3.22291667 23.48125,7.44791667 C23.6979167,8.04375 23.2645833,8.69375 22.6416667,8.69375 C22.2625,8.69375 21.9104167,8.45 21.775,8.09791667 C20.4479167,4.55 17.0083333,2.00416667 13,2.00416667 C9.15416667,2.00416667 5.82291667,4.33333333 4.3875,7.69166667 L7.85416667,6.63541667 C8.34166667,6.5 8.85625,6.77083333 8.99166667,7.25833333 L8.99166667,7.25833333 C9.12708333,7.74583333 8.85625,8.26041667 8.36875,8.39583333 L2.925,10.0208333 C2.46458333,10.15625 1.95,9.88541667 1.81458333,9.425 Z" id="Path"></path>
                <path d="M24.0770833,19.3104167 L23.1291667,16.1416667 C21.3416667,19.9333333 17.46875,22.5604167 13,22.5604167 C8.20625,22.5604167 4.11666667,19.5270833 2.51875,15.3020833 C2.30208333,14.70625 2.73541667,14.05625 3.35833333,14.05625 C3.7375,14.05625 4.08958333,14.3 4.225,14.6520833 C5.55208333,18.2 8.99166667,20.7458333 13,20.7458333 C16.8458333,20.7458333 20.1770833,18.4166667 21.6125,15.0583333 L18.1458333,16.1145833 C17.6583333,16.25 17.14375,15.9791667 17.0083333,15.4916667 C16.8729167,15.0041667 17.14375,14.4895833 17.63125,14.3541667 L23.075,12.7291667 C23.5625,12.59375 24.0770833,12.8645833 24.2125,13.3520833 L25.8375,18.7958333 C25.9729167,19.2833333 25.7020833,19.7979167 25.2145833,19.9333333 L25.2145833,19.9333333 C24.7270833,20.06875 24.2125,19.7979167 24.0770833,19.3104167 Z" id="Path"></path>
            </g>
        </g>
    </g>
</svg>